<svg width="481" height="123" viewBox="0 0 481 123" fill="none" xmlns="http://www.w3.org/2000/svg">
<path d="M147.941 89.1693V40.8737H134.584V32.4849H147.941V19.7818C147.941 18.1839 148.022 16.5861 148.182 14.9882C148.423 13.3104 148.824 11.7126 149.385 10.1946C150.027 8.67661 150.829 7.27848 151.792 6.00018C152.835 4.64199 153.998 3.52348 155.282 2.64465C156.646 1.68593 158.13 1.04678 159.734 0.727209C161.419 0.327742 163.064 0.128009 164.668 0.128009C166.914 0.128009 169.121 0.487529 171.287 1.20657C173.453 1.92561 175.298 3.08407 176.822 4.68193C178.427 6.2798 179.59 8.1573 180.312 10.3144C181.034 12.4715 181.395 14.6686 181.395 16.9056V17.2652H172.009V17.1453C172.009 16.0268 171.848 14.9482 171.527 13.9096C171.287 12.871 170.845 11.9522 170.204 11.1533C169.562 10.2745 168.719 9.63533 167.676 9.23586C166.714 8.7565 165.711 8.51682 164.668 8.51682C163.384 8.51682 162.181 8.87634 161.058 9.59538C160.015 10.3144 159.213 11.2731 158.651 12.4715C158.09 13.5901 157.689 14.7885 157.448 16.0668C157.287 17.2652 157.207 18.5035 157.207 19.7818V32.4849H177.063V40.8737H157.207V89.1693H147.941Z" fill="#AD3838"/>
<path d="M203.803 90.128C201.396 90.128 198.949 89.8084 196.462 89.1693C194.055 88.5301 191.929 87.4116 190.084 85.8138C188.239 84.136 186.875 82.1387 185.993 79.8217C185.191 77.4249 184.789 74.9882 184.789 72.5115C184.789 70.5142 185.03 68.5168 185.511 66.5195C186.073 64.5221 186.956 62.7245 188.159 61.1267C189.442 59.4489 190.967 58.0508 192.732 56.9323C194.497 55.8138 196.342 54.9349 198.267 54.2958C200.193 53.5767 202.158 53.0974 204.164 52.8577C206.249 52.618 208.335 52.4982 210.421 52.4982H221.131V46.626C221.131 44.9482 220.85 43.2705 220.289 41.5927C219.727 39.915 218.805 38.5168 217.521 37.3983C216.237 36.2798 214.753 35.4809 213.068 35.0015C211.384 34.5221 209.699 34.2825 208.014 34.2825C206.49 34.2825 204.966 34.4423 203.442 34.7618C201.917 35.0015 200.473 35.5608 199.109 36.4396C197.826 37.2385 196.783 38.3171 195.981 39.6753C195.259 41.0335 194.898 42.4716 194.898 43.9895V44.2292H185.511V43.8697C185.511 42.0321 185.792 40.2745 186.354 38.5967C186.915 36.8391 187.718 35.2412 188.761 33.8031C189.803 32.2851 191.047 31.0068 192.491 29.9682C194.015 28.9296 195.62 28.1307 197.304 27.5714C199.069 26.9323 200.834 26.4929 202.599 26.2532C204.364 26.0135 206.169 25.8937 208.014 25.8937C209.94 25.8937 211.865 26.0534 213.791 26.373C215.716 26.6127 217.561 27.132 219.326 27.9309C221.091 28.7299 222.695 29.7685 224.139 31.0468C225.664 32.3251 226.907 33.8031 227.87 35.4809C228.833 37.1586 229.514 38.9562 229.916 40.8737C230.317 42.7911 230.517 44.7086 230.517 46.626V89.1693H221.131V78.863C220.489 80.5408 219.567 82.1387 218.363 83.6566C217.24 85.0947 215.916 86.3331 214.392 87.3717C212.868 88.4103 211.183 89.1293 209.338 89.5288C207.493 89.9283 205.648 90.128 203.803 90.128ZM207.533 81.7392C209.458 81.7392 211.304 81.4596 213.068 80.9003C214.914 80.2612 216.438 79.2625 217.641 77.9043C218.925 76.5461 219.807 74.9482 220.289 73.1107C220.85 71.2731 221.131 69.4356 221.131 67.598V60.887H210.421C209.138 60.887 207.894 60.9669 206.691 61.1267C205.487 61.2066 204.284 61.4063 203.081 61.7259C201.957 62.0454 200.834 62.4849 199.711 63.0441C198.588 63.5235 197.585 64.2026 196.703 65.0814C195.82 65.9602 195.178 66.9988 194.777 68.1972C194.376 69.3158 194.176 70.4742 194.176 71.6726C194.176 73.2705 194.537 74.7885 195.259 76.2265C196.061 77.6646 197.104 78.8231 198.387 79.7019C199.751 80.5008 201.235 81.0601 202.84 81.3797C204.444 81.6193 206.009 81.7392 207.533 81.7392Z" fill="#AD3838"/>
<path d="M256.183 90.128C254.418 90.128 252.653 90.0082 250.888 89.7685C249.203 89.6087 247.518 89.2891 245.834 88.8098C244.149 88.2505 242.544 87.5315 241.02 86.6526C239.576 85.6939 238.293 84.5754 237.169 83.2971C236.046 81.9389 235.164 80.4209 234.522 78.7432C233.96 77.0654 233.68 75.3477 233.68 73.5901V72.9909H243.066V73.3504C243.066 74.7885 243.507 76.1067 244.39 77.3051C245.272 78.5035 246.355 79.4622 247.639 80.1813C249.002 80.8204 250.406 81.2598 251.85 81.4995C253.294 81.6593 254.738 81.7392 256.183 81.7392C257.627 81.7392 259.071 81.6193 260.515 81.3797C262.039 81.14 263.443 80.7006 264.726 80.0614C266.01 79.4223 267.093 78.5035 267.975 77.3051C268.938 76.0268 269.42 74.6686 269.42 73.2305C269.42 71.7924 269.018 70.5142 268.216 69.3956C267.414 68.1972 266.411 67.2385 265.208 66.5195C264.085 65.7205 262.881 65.0814 261.598 64.602C260.314 64.1227 258.99 63.6833 257.627 63.2838C256.343 62.8843 255.019 62.4849 253.655 62.0854C252.372 61.606 251.088 61.1267 249.805 60.6473C248.521 60.0881 247.278 59.4889 246.074 58.8497C244.871 58.2106 243.708 57.4915 242.585 56.6926C241.461 55.8138 240.418 54.895 239.456 53.9363C238.493 52.8976 237.651 51.8191 236.929 50.7006C236.287 49.5022 235.765 48.2239 235.364 46.8657C235.043 45.5075 234.883 44.1493 234.883 42.7911C234.883 41.1134 235.124 39.4356 235.605 37.7578C236.167 36.0801 236.969 34.5621 238.012 33.2039C239.055 31.8457 240.298 30.6873 241.742 29.7285C243.186 28.7698 244.71 28.0108 246.315 27.4516C247.919 26.8124 249.564 26.413 251.249 26.2532C253.014 26.0135 254.738 25.8937 256.423 25.8937C258.108 25.8937 259.793 26.0135 261.477 26.2532C263.162 26.413 264.807 26.7725 266.411 27.3317C268.016 27.891 269.54 28.65 270.984 29.6087C272.428 30.4875 273.671 31.606 274.714 32.9642C275.757 34.2425 276.559 35.7206 277.121 37.3983C277.683 38.9962 277.963 40.634 277.963 42.3118V43.0308H268.577V42.6713C268.577 41.3131 268.176 40.0348 267.374 38.8364C266.652 37.638 265.689 36.7192 264.486 36.0801C263.282 35.361 261.959 34.8817 260.515 34.642C259.151 34.4023 257.787 34.2825 256.423 34.2825C255.059 34.2825 253.655 34.4023 252.211 34.642C250.848 34.8817 249.564 35.361 248.361 36.0801C247.157 36.7192 246.155 37.6779 245.352 38.9562C244.55 40.1546 244.149 41.4329 244.149 42.7911C244.149 44.1493 244.55 45.4276 245.352 46.626C246.155 47.8244 247.117 48.8231 248.24 49.622C249.363 50.3411 250.567 50.9403 251.85 51.4196C253.214 51.899 254.538 52.3384 255.822 52.7379C257.185 53.1373 258.509 53.5767 259.793 54.0561C261.076 54.4556 262.36 54.9349 263.643 55.4942C264.927 55.9735 266.17 56.5328 267.374 57.1719C268.657 57.8111 269.821 58.5301 270.864 59.3291C271.987 60.128 273.03 61.0468 273.992 62.0854C274.955 63.0441 275.797 64.1227 276.519 65.3211C277.241 66.5195 277.763 67.7978 278.084 69.156C278.485 70.4343 278.685 71.7924 278.685 73.2305C278.685 74.9882 278.365 76.7059 277.723 78.3837C277.161 80.0614 276.319 81.5794 275.196 82.9376C274.153 84.2958 272.869 85.4542 271.345 86.413C269.821 87.3717 268.216 88.1307 266.531 88.6899C264.927 89.2492 263.242 89.6087 261.477 89.7685C259.712 90.0082 257.947 90.128 256.183 90.128Z" fill="#AD3838"/>
<path d="M311.413 90.128C309.648 90.128 307.843 89.8883 305.998 89.409C304.233 88.9296 302.589 88.1706 301.064 87.132C299.62 86.0934 298.377 84.8151 297.334 83.2971C296.371 81.7791 295.569 80.1813 294.927 78.5035C294.366 76.7458 293.964 74.9882 293.724 73.2305C293.483 71.393 293.363 69.5554 293.363 67.7179V35.2412H281.81V26.8524H293.363V1.08673H302.749V26.8524H323.928V35.2412H302.749V67.7179C302.749 68.7565 302.789 69.7951 302.869 70.8337C302.95 71.8723 303.11 72.911 303.351 73.9496C303.591 74.9083 303.912 75.867 304.313 76.8257C304.714 77.7046 305.236 78.5434 305.878 79.3424C306.6 80.1413 307.442 80.7405 308.405 81.14C309.368 81.5395 310.37 81.7392 311.413 81.7392C312.456 81.7392 313.419 81.5395 314.301 81.14C315.264 80.7405 316.066 80.1813 316.708 79.4622C317.43 78.7432 317.992 77.9442 318.393 77.0654C318.874 76.1067 319.235 75.148 319.476 74.1893C319.716 73.2305 319.877 72.2718 319.957 71.3131C320.118 70.2745 320.198 69.2758 320.198 68.3171V67.598H329.584V68.6766C329.584 70.4343 329.424 72.1919 329.103 73.9496C328.782 75.7072 328.3 77.4249 327.659 79.1027C327.097 80.7006 326.295 82.2185 325.252 83.6566C324.209 85.0947 322.965 86.3331 321.521 87.3717C320.077 88.3304 318.473 89.0095 316.708 89.409C314.943 89.8883 313.178 90.128 311.413 90.128Z" fill="#AD3838"/>
<path d="M363.473 41.396C357.093 41.396 352.339 44.532 352.339 52.0733C352.339 57.7547 355.468 61.7027 363.129 61.7027C369.624 61.7027 374.036 57.88 374.036 51.8387C374.036 44.9947 370.088 41.396 363.473 41.396ZM350.713 94.6627C349.203 96.516 347.697 98.4893 347.697 100.812C347.697 105.452 353.609 106.844 361.733 106.844C368.468 106.844 377.635 106.375 377.635 100.12C377.635 96.396 373.224 96.1667 367.651 95.8173L350.713 94.6627ZM385.061 41.7453C387.145 44.4173 389.355 48.1307 389.355 53.4693C389.355 66.344 379.26 73.8907 364.64 73.8907C360.921 73.8907 357.557 73.4267 355.468 72.844L351.641 78.9947L363.009 79.688C383.088 80.968 394.921 81.552 394.921 96.9787C394.921 110.323 383.203 117.865 363.009 117.865C342.009 117.865 334 112.527 334 103.359C334 98.136 336.323 95.3587 340.385 91.5213C336.552 89.9067 335.281 87.0053 335.281 83.8693C335.281 81.3173 336.552 78.9947 338.645 76.7867C340.733 74.584 343.052 72.38 345.839 69.828C340.156 67.0413 335.859 61.0053 335.859 52.4173C335.859 39.0733 344.676 29.9107 362.432 29.9107C367.421 29.9107 370.437 30.3693 373.109 31.0733H395.739V40.932L385.063 41.7453M416.151 20.656C409.536 20.656 405.708 16.8293 405.708 10.208C405.708 3.59867 409.536 2.76259e-06 416.151 2.76259e-06C422.884 2.76259e-06 426.713 3.6 426.713 10.208C426.713 16.828 422.885 20.656 416.151 20.656ZM401.181 90.396V81.228L407.099 80.42C408.724 80.1867 408.957 79.8373 408.957 78.092V43.9787C408.957 42.708 408.609 41.8907 407.448 41.5467L401.181 39.3387L402.457 29.9427H426.479V78.0947C426.479 79.96 426.593 80.188 428.339 80.4227L434.255 81.2307V90.3973L401.181 90.396ZM480.14 85.8947C475.151 88.328 467.843 90.536 461.224 90.536C447.416 90.536 442.197 84.9693 442.197 71.8493V41.4533C442.197 40.7547 442.197 40.292 441.264 40.292H433.14V29.964C443.359 28.8027 447.416 23.6933 448.692 11.0467H459.719V27.5267C459.719 28.3387 459.719 28.6867 460.645 28.6867H477.005V40.292H459.719V68.0213C459.719 74.8693 461.343 77.536 467.609 77.536C470.859 77.536 474.223 76.724 477.005 75.6827L480.14 85.8947Z" fill="#AD3838"/>
<path d="M55.3763 2.3431C58.5005 -0.780999 63.5656 -0.781065 66.6898 2.3431L119.723 55.3763C122.847 58.5005 122.847 63.5656 119.723 66.6898L66.6898 119.723C63.5656 122.847 58.5005 122.847 55.3763 119.723L47.0599 111.407V73.6409C48.7537 72.7988 50.1319 71.42 50.974 69.7259H71.0911C72.5105 72.5817 75.4559 74.5452 78.8607 74.5452C83.6502 74.545 87.5325 70.6611 87.5325 65.8704C87.5325 61.0797 83.6503 57.1959 78.8607 57.1956C75.4558 57.1956 72.5104 59.1591 71.0911 62.015H50.974C50.1319 60.3207 48.7539 58.9411 47.0599 58.099V37.9779C48.7537 37.1357 50.1319 35.757 50.974 34.0628H71.0911C72.5104 36.9188 75.4557 38.8822 78.8607 38.8822C83.6503 38.8819 87.5325 34.9981 87.5325 30.2074C87.5324 25.4167 83.6502 21.5328 78.8607 21.5325C75.4559 21.5325 72.5105 23.4962 71.0911 26.3519H50.974C49.5545 23.4963 46.6101 21.5325 43.2054 21.5325C38.4158 21.5327 34.5327 25.4167 34.5326 30.2074C34.5326 33.6129 36.4959 36.5582 39.3509 37.9779V58.099C36.4957 59.5186 34.5326 62.4648 34.5326 65.8704C34.5326 69.2759 36.4959 72.2213 39.3509 73.6409V103.698L2.3431 66.6898C-0.781065 63.5656 -0.781 58.5005 2.3431 55.3763L55.3763 2.3431Z" fill="#F03C2E"/>
</svg>
